<svg width="100" height="100" viewBox="0 0 800 600" xmlns="http://www.w3.org/2000/svg">
    <!-- Desktop Monitor Outline -->
    <g transform="translate(100,50)">
        <!-- Monitor Back Panel -->
        <rect x="0" y="0" width="600" height="450" rx="10" fill="#2d2d2d"/>
        
        <!-- Screen Bezel -->
        <rect x="20" y="20" width="560" height="410" rx="5" fill="#1a1a1a"/>
        
        <!-- Screen Content -->
        <g transform="translate(30,30)">
            <!-- Screen Background -->
            <rect width="540" height="380" fill="#e0e0e0"/>
            
            <!-- UI Content (from previous design) -->
            <g transform="translate(20,20)">
                <!-- Window Container -->
                <rect x="0" y="0" width="500" height="340" rx="5" fill="#ffffff"/>
                
                <!-- Window Title Bar -->
                <rect x="0" y="0" width="500" height="25" fill="#f5f5f5"/>
                <rect x="0" y="25" width="500" height="1" fill="#cccccc"/>
                
                <!-- Window Controls -->
                <circle cx="15" cy="12.5" r="5" fill="#ff5f57"/>
                <circle cx="35" cy="12.5" r="5" fill="#febc2e"/>
                <circle cx="55" cy="12.5" r="5" fill="#28c940"/>
                
                <!-- Left Sidebar -->
                <rect x="0" y="26" width="70" height="314" fill="#f8f8f8"/>
                
                <!-- Sidebar Icons -->
                <g transform="translate(15,50)" fill="#4a90e2">
                    <rect width="40" height="40" rx="5"/>
                    <rect y="60" width="40" height="40" rx="5"/>
                    <rect y="120" width="40" height="40" rx="5"/>
                </g>
                
                <!-- Main Content Area -->
                <rect x="80" y="40" width="400" height="280" rx="3" fill="#ffffff" stroke="#eeeeee"/>
                
                <!-- Browser Window Example -->
                <g transform="translate(100,60)">
                    <rect x="0" y="0" width="360" height="25" rx="4" fill="#f8f8f8"/>
                    <rect x="10" y="5" width="320" height="15" rx="2" fill="#ffffff"/>
                </g>
            </g>
        </g>
        
        <!-- Monitor Base -->
        <rect x="250" y="440" width="100" height="30" fill="#2d2d2d"/>
        <rect x="225" y="470" width="150" height="20" rx="5" fill="#2d2d2d"/>
    </g>
    
    <!-- Desktop Tower (Optional) -->
    <rect x="50" y="200" width="80" height="300" rx="10" fill="#2d2d2d"/>
    <rect x="60" y="210" width="60" height="40" rx="3" fill="#3d3d3d"/>
    <rect x="60" y="260" width="60" height="40" rx="3" fill="#3d3d3d"/>
</svg>